<svg xmlns="http://www.w3.org/2000/svg" viewBox="0 0 180 260" width="180" height="260">
  <defs>
    <linearGradient id="stem" x1="0%" y1="0%" x2="100%" y2="100%">
      <stop offset="0%" stop-color="#3d5240"/>
      <stop offset="100%" stop-color="#5c6f56"/>
    </linearGradient>
    <linearGradient id="fl" x1="0%" y1="0%" x2="0%" y2="100%">
      <stop offset="0%" stop-color="#9aa899"/>
      <stop offset="100%" stop-color="#6b8268"/>
    </linearGradient>
  </defs>
  <path fill="url(#stem)" d="M88 248c3-42 6-118 10-168 2-22 4-44 6-66"/>
  <path fill="none" stroke="url(#stem)" stroke-width="3.5" stroke-linecap="round" d="M92 42c-8 52-12 108-8 206"/>
  <ellipse cx="72" cy="58" rx="14" ry="22" fill="url(#fl)" opacity="0.92" transform="rotate(-18 72 58)"/>
  <ellipse cx="108" cy="72" rx="13" ry="20" fill="url(#fl)" opacity="0.88" transform="rotate(22 108 72)"/>
  <ellipse cx="82" cy="96" rx="15" ry="24" fill="url(#fl)" opacity="0.9" transform="rotate(-8 82 96)"/>
  <ellipse cx="118" cy="118" rx="12" ry="19" fill="url(#fl)" opacity="0.85" transform="rotate(28 118 118)"/>
  <ellipse cx="76" cy="138" rx="14" ry="21" fill="url(#fl)" opacity="0.87" transform="rotate(-22 76 138)"/>
  <ellipse cx="112" cy="158" rx="13" ry="20" fill="url(#fl)" opacity="0.82" transform="rotate(12 112 158)"/>
  <ellipse cx="88" cy="182" rx="12" ry="18" fill="url(#fl)" opacity="0.8" transform="rotate(-14 88 182)"/>
</svg>
